<?xml version="1.0" standalone="no"?>
<!DOCTYPE svg PUBLIC "-//W3C//DTD SVG 20010904//EN"
        "http://www.w3.org/TR/2001/REC-SVG-20010904/DTD/svg10.dtd">
<svg version="1.0" xmlns="http://www.w3.org/2000/svg"
     width="150.000000pt" height="150.000000pt" viewBox="0 0 150.000000 150.000000"
     preserveAspectRatio="xMidYMid meet">

    <g transform="translate(0.000000,150.000000) scale(0.100000,-0.100000)"
       fill="Red" stroke="none">
        <path d="M95 1470 c-79 -39 -75 1 -75 -722 0 -627 1 -644 20 -676 39 -63 25
-62 712 -62 585 0 625 1 657 18 19 10 43 34 53 53 17 32 18 69 16 681 l-3 646
-25 27 c-51 56 -39 55 -702 55 -592 0 -614 -1 -653 -20z m1310 -65 l25 -24 0
-630 0 -630 -24 -28 -24 -28 -627 -3 -626 -2 -30 29 -29 29 0 630 c0 622 0
630 21 656 l20 26 635 0 635 0 24 -25z"/>
    </g>
</svg>